<svg xmlns="http://www.w3.org/2000/svg" width="360" height="260" viewBox="0 0 360 260" role="img" aria-label="Dot grid brand element">
  <rect width="360" height="260" fill="none"/>
  <circle cx="34" cy="32" r="3.5" fill="#0B1320"/><circle cx="66" cy="32" r="3.5" fill="#0B1320"/><circle cx="98" cy="32" r="3.5" fill="#0B1320"/><circle cx="130" cy="32" r="3.5" fill="#0B1320"/><circle cx="162" cy="32" r="3.5" fill="#0B1320"/><circle cx="194" cy="32" r="3.5" fill="#0B1320"/><circle cx="226" cy="32" r="3.5" fill="#0B1320"/><circle cx="258" cy="32" r="3.5" fill="#0B1320"/><circle cx="290" cy="32" r="3.5" fill="#0B1320"/><circle cx="322" cy="32" r="3.5" fill="#0B1320"/><circle cx="34" cy="64" r="3.5" fill="#0B1320"/><circle cx="66" cy="64" r="3.5" fill="#0B1320"/><circle cx="98" cy="64" r="3.5" fill="#0B1320"/><circle cx="130" cy="64" r="3.5" fill="#0B1320"/><circle cx="162" cy="64" r="3.5" fill="#0B1320"/><circle cx="194" cy="64" r="3.5" fill="#0B1320"/><circle cx="226" cy="64" r="3.5" fill="#0B1320"/><circle cx="258" cy="64" r="3.5" fill="#0B1320"/><circle cx="290" cy="64" r="3.5" fill="#0B1320"/><circle cx="322" cy="64" r="3.5" fill="#0B1320"/><circle cx="34" cy="96" r="3.5" fill="#0B1320"/><circle cx="66" cy="96" r="3.5" fill="#0B1320"/><circle cx="98" cy="96" r="3.5" fill="#0B1320"/><circle cx="130" cy="96" r="3.5" fill="#0B1320"/><circle cx="162" cy="96" r="3.5" fill="#0B1320"/><circle cx="194" cy="96" r="3.5" fill="#0B1320"/><circle cx="226" cy="96" r="3.5" fill="#0B1320"/><circle cx="258" cy="96" r="3.5" fill="#0B1320"/><circle cx="290" cy="96" r="3.5" fill="#0B1320"/><circle cx="322" cy="96" r="3.5" fill="#0B1320"/><circle cx="34" cy="128" r="3.5" fill="#0B1320"/><circle cx="66" cy="128" r="3.5" fill="#0B1320"/><circle cx="98" cy="128" r="3.5" fill="#0B1320"/><circle cx="130" cy="128" r="3.5" fill="#0B1320"/><circle cx="162" cy="128" r="3.5" fill="#0B1320"/><circle cx="194" cy="128" r="3.5" fill="#0B1320"/><circle cx="226" cy="128" r="3.5" fill="#0B1320"/><circle cx="258" cy="128" r="3.5" fill="#0B1320"/><circle cx="290" cy="128" r="3.5" fill="#0B1320"/><circle cx="322" cy="128" r="3.5" fill="#0B1320"/><circle cx="34" cy="160" r="3.5" fill="#0B1320"/><circle cx="66" cy="160" r="3.5" fill="#0B1320"/><circle cx="98" cy="160" r="3.5" fill="#0B1320"/><circle cx="130" cy="160" r="3.5" fill="#0B1320"/><circle cx="162" cy="160" r="3.5" fill="#0B1320"/><circle cx="194" cy="160" r="3.5" fill="#0B1320"/><circle cx="226" cy="160" r="3.5" fill="#0B1320"/><circle cx="258" cy="160" r="3.5" fill="#0B1320"/><circle cx="290" cy="160" r="3.5" fill="#0B1320"/><circle cx="322" cy="160" r="3.5" fill="#0B1320"/><circle cx="34" cy="192" r="3.5" fill="#0B1320"/><circle cx="66" cy="192" r="3.5" fill="#0B1320"/><circle cx="98" cy="192" r="3.5" fill="#0B1320"/><circle cx="130" cy="192" r="3.5" fill="#0B1320"/><circle cx="162" cy="192" r="3.5" fill="#0B1320"/><circle cx="194" cy="192" r="3.5" fill="#0B1320"/><circle cx="226" cy="192" r="3.5" fill="#0B1320"/><circle cx="258" cy="192" r="3.5" fill="#0B1320"/><circle cx="290" cy="192" r="3.5" fill="#0B1320"/><circle cx="322" cy="192" r="3.5" fill="#0B1320"/><circle cx="34" cy="224" r="3.5" fill="#0B1320"/><circle cx="66" cy="224" r="3.5" fill="#0B1320"/><circle cx="98" cy="224" r="3.5" fill="#0B1320"/><circle cx="130" cy="224" r="3.5" fill="#0B1320"/><circle cx="162" cy="224" r="3.5" fill="#0B1320"/><circle cx="194" cy="224" r="3.5" fill="#0B1320"/><circle cx="226" cy="224" r="3.5" fill="#0B1320"/><circle cx="258" cy="224" r="3.5" fill="#0B1320"/><circle cx="290" cy="224" r="3.5" fill="#0B1320"/><circle cx="322" cy="224" r="3.5" fill="#0B1320"/>
</svg>