<svg xmlns="http://www.w3.org/2000/svg" width="960" height="640" viewBox="0 0 960 640" role="img" aria-label="Consett Marketing arrow pattern">
  <rect width="960" height="640" fill="#FAFAF8"/>
  <defs>
    <g id="arrow">
      <path fill="#FF6A00" d="M31.5 9H12v7h12.55L8.9 31.65l4.95 4.95L29.5 20.95V33.5h7V14c0-2.76-2.24-5-5-5Z"/>
    </g>
  </defs>
  <use href="#arrow" x="0" y="28" opacity="0.95"/><use href="#arrow" x="84" y="28" opacity="0.95"/><use href="#arrow" x="168" y="28" opacity="0.95"/><use href="#arrow" x="252" y="28" opacity="0.95"/><use href="#arrow" x="336" y="28" opacity="0.95"/><use href="#arrow" x="420" y="28" opacity="0.95"/><use href="#arrow" x="504" y="28" opacity="0.95"/><use href="#arrow" x="588" y="28" opacity="0.95"/><use href="#arrow" x="672" y="28" opacity="0.95"/><use href="#arrow" x="756" y="28" opacity="0.95"/><use href="#arrow" x="840" y="28" opacity="0.95"/><use href="#arrow" x="924" y="28" opacity="0.95"/><use href="#arrow" x="42" y="110" opacity="0.95"/><use href="#arrow" x="126" y="110" opacity="0.95"/><use href="#arrow" x="210" y="110" opacity="0.95"/><use href="#arrow" x="294" y="110" opacity="0.95"/><use href="#arrow" x="378" y="110" opacity="0.95"/><use href="#arrow" x="462" y="110" opacity="0.95"/><use href="#arrow" x="546" y="110" opacity="0.95"/><use href="#arrow" x="630" y="110" opacity="0.95"/><use href="#arrow" x="714" y="110" opacity="0.95"/><use href="#arrow" x="798" y="110" opacity="0.95"/><use href="#arrow" x="882" y="110" opacity="0.95"/><use href="#arrow" x="0" y="192" opacity="0.95"/><use href="#arrow" x="84" y="192" opacity="0.95"/><use href="#arrow" x="168" y="192" opacity="0.95"/><use href="#arrow" x="252" y="192" opacity="0.95"/><use href="#arrow" x="336" y="192" opacity="0.95"/><use href="#arrow" x="420" y="192" opacity="0.95"/><use href="#arrow" x="504" y="192" opacity="0.95"/><use href="#arrow" x="588" y="192" opacity="0.95"/><use href="#arrow" x="672" y="192" opacity="0.95"/><use href="#arrow" x="756" y="192" opacity="0.95"/><use href="#arrow" x="840" y="192" opacity="0.95"/><use href="#arrow" x="924" y="192" opacity="0.95"/><use href="#arrow" x="42" y="274" opacity="0.95"/><use href="#arrow" x="126" y="274" opacity="0.95"/><use href="#arrow" x="210" y="274" opacity="0.95"/><use href="#arrow" x="294" y="274" opacity="0.95"/><use href="#arrow" x="378" y="274" opacity="0.95"/><use href="#arrow" x="462" y="274" opacity="0.95"/><use href="#arrow" x="546" y="274" opacity="0.95"/><use href="#arrow" x="630" y="274" opacity="0.95"/><use href="#arrow" x="714" y="274" opacity="0.95"/><use href="#arrow" x="798" y="274" opacity="0.95"/><use href="#arrow" x="882" y="274" opacity="0.95"/><use href="#arrow" x="0" y="356" opacity="0.95"/><use href="#arrow" x="84" y="356" opacity="0.95"/><use href="#arrow" x="168" y="356" opacity="0.95"/><use href="#arrow" x="252" y="356" opacity="0.95"/><use href="#arrow" x="336" y="356" opacity="0.95"/><use href="#arrow" x="420" y="356" opacity="0.95"/><use href="#arrow" x="504" y="356" opacity="0.95"/><use href="#arrow" x="588" y="356" opacity="0.95"/><use href="#arrow" x="672" y="356" opacity="0.95"/><use href="#arrow" x="756" y="356" opacity="0.95"/><use href="#arrow" x="840" y="356" opacity="0.95"/><use href="#arrow" x="924" y="356" opacity="0.95"/><use href="#arrow" x="42" y="438" opacity="0.95"/><use href="#arrow" x="126" y="438" opacity="0.95"/><use href="#arrow" x="210" y="438" opacity="0.95"/><use href="#arrow" x="294" y="438" opacity="0.95"/><use href="#arrow" x="378" y="438" opacity="0.95"/><use href="#arrow" x="462" y="438" opacity="0.95"/><use href="#arrow" x="546" y="438" opacity="0.95"/><use href="#arrow" x="630" y="438" opacity="0.95"/><use href="#arrow" x="714" y="438" opacity="0.95"/><use href="#arrow" x="798" y="438" opacity="0.95"/><use href="#arrow" x="882" y="438" opacity="0.95"/><use href="#arrow" x="0" y="520" opacity="0.95"/><use href="#arrow" x="84" y="520" opacity="0.95"/><use href="#arrow" x="168" y="520" opacity="0.95"/><use href="#arrow" x="252" y="520" opacity="0.95"/><use href="#arrow" x="336" y="520" opacity="0.95"/><use href="#arrow" x="420" y="520" opacity="0.95"/><use href="#arrow" x="504" y="520" opacity="0.95"/><use href="#arrow" x="588" y="520" opacity="0.95"/><use href="#arrow" x="672" y="520" opacity="0.95"/><use href="#arrow" x="756" y="520" opacity="0.95"/><use href="#arrow" x="840" y="520" opacity="0.95"/><use href="#arrow" x="924" y="520" opacity="0.95"/><use href="#arrow" x="42" y="602" opacity="0.95"/><use href="#arrow" x="126" y="602" opacity="0.95"/><use href="#arrow" x="210" y="602" opacity="0.95"/><use href="#arrow" x="294" y="602" opacity="0.95"/><use href="#arrow" x="378" y="602" opacity="0.95"/><use href="#arrow" x="462" y="602" opacity="0.95"/><use href="#arrow" x="546" y="602" opacity="0.95"/><use href="#arrow" x="630" y="602" opacity="0.95"/><use href="#arrow" x="714" y="602" opacity="0.95"/><use href="#arrow" x="798" y="602" opacity="0.95"/><use href="#arrow" x="882" y="602" opacity="0.95"/>
</svg>